HIERARCHY
ROOT Hips
{
  OFFSET -17.158 3.421 -253.982
  CHANNELS 6 Xposition Yposition Zposition Zrotation Xrotation Yrotation
  JOINT LeftUpLeg
  {
    OFFSET 5.486 -5.444 1.281
    CHANNELS 6 Xposition Yposition Zposition Zrotation Xrotation Yrotation
    JOINT LeftLeg
    {
      OFFSET -0.000 -44.668 0.000
      CHANNELS 6 Xposition Yposition Zposition Zrotation Xrotation Yrotation
      JOINT LeftFoot
      {
        OFFSET 0.000 -36.863 -0.000
        CHANNELS 6 Xposition Yposition Zposition Zrotation Xrotation Yrotation
        End Site
        {
          OFFSET -0.000 -8.143 4.701
        }
      }
    }
  }
  JOINT RightUpLeg
  {
    OFFSET -5.065 -5.799 1.578
    CHANNELS 6 Xposition Yposition Zposition Zrotation Xrotation Yrotation
    JOINT RightLeg
    {
      OFFSET -0.000 -44.770 0.000
      CHANNELS 6 Xposition Yposition Zposition Zrotation Xrotation Yrotation
      JOINT RightFoot
      {
        OFFSET 0.000 -37.147 -0.000
        CHANNELS 6 Xposition Yposition Zposition Zrotation Xrotation Yrotation
        End Site
        {
          OFFSET -0.000 -8.300 4.792
        }
      }
    }
  }
  JOINT Spine
  {
    OFFSET 0.000 6.956 -6.956
    CHANNELS 6 Xposition Yposition Zposition Zrotation Xrotation Yrotation
    JOINT LeftShoulder
    {
      OFFSET -0.000 47.044 0.000
      CHANNELS 6 Xposition Yposition Zposition Zrotation Xrotation Yrotation
      JOINT LeftArm
      {
        OFFSET 25.525 0.000 -0.000
        CHANNELS 6 Xposition Yposition Zposition Zrotation Xrotation Yrotation
        JOINT LeftForeArm
        {
          OFFSET 28.977 0.000 0.000
          CHANNELS 6 Xposition Yposition Zposition Zrotation Xrotation Yrotation
          JOINT LeftHand
          {
            OFFSET 26.160 -0.000 -0.000
            CHANNELS 6 Xposition Yposition Zposition Zrotation Xrotation Yrotation
            JOINT LeftHandThumb1
            {
            OFFSET 4.970 -0.620 3.390
            CHANNELS 6 Xposition Yposition Zposition Zrotation Xrotation Yrotation
              JOINT LeftHandThumb2
              {
              OFFSET 2.150 -0.000 0.000
              CHANNELS 6 Xposition Yposition Zposition Zrotation Xrotation Yrotation
                JOINT LeftHandThumb3
                {
                OFFSET 2.200 -0.000 0.000
                CHANNELS 6 Xposition Yposition Zposition Zrotation Xrotation Yrotation
                  JOINT LeftHandThumb4
                  {
                  OFFSET 1.700 -0.000 0.000
                  CHANNELS 6 Xposition Yposition Zposition Zrotation Xrotation Yrotation
                  }
                }
              }
            }
            JOINT LeftHandIndex1
            {
            OFFSET 8.730 0.680 2.070
            CHANNELS 6 Xposition Yposition Zposition Zrotation Xrotation Yrotation
              JOINT LeftHandIndex2
              {
              OFFSET 2.670 -0.000 0.000
              CHANNELS 6 Xposition Yposition Zposition Zrotation Xrotation Yrotation
                JOINT LeftHandIndex3
                {
                OFFSET 2.130 -0.000 0.000
                CHANNELS 6 Xposition Yposition Zposition Zrotation Xrotation Yrotation
                  JOINT LeftHandIndex4
                  {
                  OFFSET 1.800 -0.000 0.000
                  CHANNELS 6 Xposition Yposition Zposition Zrotation Xrotation Yrotation
                  }
                }
              }
            }
            JOINT LeftHandMiddle1
            {
            OFFSET 9.220 0.670 0.550
            CHANNELS 6 Xposition Yposition Zposition Zrotation Xrotation Yrotation
              JOINT LeftHandMiddle2
              {
              OFFSET 2.660 -0.000 0.000
              CHANNELS 6 Xposition Yposition Zposition Zrotation Xrotation Yrotation
                JOINT LeftHandMiddle3
                {
                OFFSET 2.280 -0.000 0.000
                CHANNELS 6 Xposition Yposition Zposition Zrotation Xrotation Yrotation
                  JOINT LeftHandMiddle4
                  {
                  OFFSET 1.500 -0.000 0.000
                  CHANNELS 6 Xposition Yposition Zposition Zrotation Xrotation Yrotation
                  }
                }
              }
            }
            JOINT LeftHandRing1
            {
            OFFSET 9.250 0.670 -1.130
            CHANNELS 6 Xposition Yposition Zposition Zrotation Xrotation Yrotation
              JOINT LeftHandRing2
              {
              OFFSET 2.470 -0.000 0.000
              CHANNELS 6 Xposition Yposition Zposition Zrotation Xrotation Yrotation
                JOINT LeftHandRing3
                {
                OFFSET 2.210 -0.000 0.000
                CHANNELS 6 Xposition Yposition Zposition Zrotation Xrotation Yrotation
                  JOINT LeftHandRing4
                  {
                  OFFSET 1.800 -0.000 0.000
                  CHANNELS 6 Xposition Yposition Zposition Zrotation Xrotation Yrotation
                  }
                }
              }
            }
            JOINT LeftHandPinky1
            {
            OFFSET 9.350 0.660 -2.720
            CHANNELS 6 Xposition Yposition Zposition Zrotation Xrotation Yrotation
              JOINT LeftHandPinky2
              {
              OFFSET 1.630 -0.000 0.000
              CHANNELS 6 Xposition Yposition Zposition Zrotation Xrotation Yrotation
                JOINT LeftHandPinky3
                {
                OFFSET 1.710 -0.000 0.000
                CHANNELS 6 Xposition Yposition Zposition Zrotation Xrotation Yrotation
                  JOINT LeftHandPinky4
                  {
                  OFFSET 1.800 -0.000 0.000
                  CHANNELS 6 Xposition Yposition Zposition Zrotation Xrotation Yrotation
                  }
                }
              }
            }
          }
        }
      }
    }
    JOINT RightShoulder
    {
      OFFSET -0.000 47.044 0.000
      CHANNELS 6 Xposition Yposition Zposition Zrotation Xrotation Yrotation
      JOINT RightArm
      {
        OFFSET -26.042 0.000 -0.000
        CHANNELS 6 Xposition Yposition Zposition Zrotation Xrotation Yrotation
        JOINT RightForeArm
        {
          OFFSET -29.370 0.000 0.000
          CHANNELS 6 Xposition Yposition Zposition Zrotation Xrotation Yrotation
          JOINT RightHand
          {
            OFFSET -27.402 0.000 -0.000
            CHANNELS 6 Xposition Yposition Zposition Zrotation Xrotation Yrotation
            JOINT RightHandThumb1
            {
            OFFSET -4.970 -0.620 3.390
            CHANNELS 6 Xposition Yposition Zposition Zrotation Xrotation Yrotation
              JOINT RightHandThumb2
              {
              OFFSET -2.150 0.000 0.000
              CHANNELS 6 Xposition Yposition Zposition Zrotation Xrotation Yrotation
                JOINT RightHandThumb3
                {
                OFFSET -2.200 0.000 0.000
                CHANNELS 6 Xposition Yposition Zposition Zrotation Xrotation Yrotation
                  JOINT RightHandThumb4
                  {
                  OFFSET -1.700 0.000 0.000
                  CHANNELS 6 Xposition Yposition Zposition Zrotation Xrotation Yrotation
                  }
                }
              }
            }
            JOINT RightHandIndex1
            {
            OFFSET -8.730 0.680 2.070
            CHANNELS 6 Xposition Yposition Zposition Zrotation Xrotation Yrotation
              JOINT RightHandIndex2
              {
              OFFSET -2.670 0.000 0.000
              CHANNELS 6 Xposition Yposition Zposition Zrotation Xrotation Yrotation
                JOINT RightHandIndex3
                {
                OFFSET -2.130 0.000 0.000
                CHANNELS 6 Xposition Yposition Zposition Zrotation Xrotation Yrotation
                  JOINT RightHandIndex4
                  {
                  OFFSET -1.800 0.000 0.000
                  CHANNELS 6 Xposition Yposition Zposition Zrotation Xrotation Yrotation
                  }
                }
              }
            }
            JOINT RightHandMiddle1
            {
            OFFSET -9.220 0.670 0.550
            CHANNELS 6 Xposition Yposition Zposition Zrotation Xrotation Yrotation
              JOINT RightHandMiddle2
              {
              OFFSET -2.660 0.000 0.000
              CHANNELS 6 Xposition Yposition Zposition Zrotation Xrotation Yrotation
                JOINT RightHandMiddle3
                {
                OFFSET -2.280 0.000 0.000
                CHANNELS 6 Xposition Yposition Zposition Zrotation Xrotation Yrotation
                  JOINT RightHandMiddle4
                  {
                  OFFSET -1.500 0.000 0.000
                  CHANNELS 6 Xposition Yposition Zposition Zrotation Xrotation Yrotation
                  }
                }
              }
            }
            JOINT RightHandRing1
            {
            OFFSET -9.250 0.670 -1.130
            CHANNELS 6 Xposition Yposition Zposition Zrotation Xrotation Yrotation
              JOINT RightHandRing2
              {
              OFFSET -2.470 0.000 0.000
              CHANNELS 6 Xposition Yposition Zposition Zrotation Xrotation Yrotation
                JOINT RightHandRing3
                {
                OFFSET -2.210 0.000 0.000
                CHANNELS 6 Xposition Yposition Zposition Zrotation Xrotation Yrotation
                  JOINT RightHandRing4
                  {
                  OFFSET -1.800 0.000 0.000
                  CHANNELS 6 Xposition Yposition Zposition Zrotation Xrotation Yrotation
                  }
                }
              }
            }
            JOINT RightHandPinky1
            {
            OFFSET -9.350 0.660 -2.720
            CHANNELS 6 Xposition Yposition Zposition Zrotation Xrotation Yrotation
              JOINT RightHandPinky2
              {
              OFFSET -1.630 0.000 0.000
              CHANNELS 6 Xposition Yposition Zposition Zrotation Xrotation Yrotation
                JOINT RightHandPinky3
                {
                OFFSET -1.710 0.000 0.000
                CHANNELS 6 Xposition Yposition Zposition Zrotation Xrotation Yrotation
                  JOINT RightHandPinky4
                  {
                  OFFSET -1.800 0.000 0.000
                  CHANNELS 6 Xposition Yposition Zposition Zrotation Xrotation Yrotation
                  }
                }
              }
            }
          }
        }
      }
    }
    JOINT Neck
    {
      OFFSET -0.000 47.044 0.000
      CHANNELS 6 Xposition Yposition Zposition Zrotation Xrotation Yrotation
      JOINT Head
      {
        OFFSET 0.000 16.584 -0.000
        CHANNELS 6 Xposition Yposition Zposition Zrotation Xrotation Yrotation
        End Site
        {
          OFFSET 0.000 0.066 -0.000
        }
      }
    }
  }
}
MOTION
Frames:	4
Frame Time:	0.0333333
-104.078 15.8285 -268.762 -2.75104 -3.63387 74.3128 6.75104 -6.79575 1.76519 7.16274 10.5661 -8.40368 4.76837e-05 -48.8428 0 -16.7232 -10.6146 1.38982e-05 0 -38.2935 2.38419e-05 18.4778 -12.312 14.9152 -6.77979 -6.30493 0.554883 -4.15926 4.53144 -4.93231 0 -47.8357 0 3.11249 -2.12659 0.115614 0 -37.6527 -4.76837e-05 9.31634 -14.2721 7.57979 -2.38419e-05 7.16273 -7.16275 1.36851 -1.86234 -5.37249 0 47.0435 -2.38419e-05 -59.4515 5.12264e-06 -5.73288 26.3481 0 0 -23.3921 -2.77558 1.27167 23.882 -2.38419e-05 -4.76837e-05 13.4394 3.13435 12.8883 23.3281 2.38419e-05 3.57628e-05 -19.8328 0.0674118 -26.9883 0.0062 0.0497 0.0339 -1.61149e-43 0 0 0 0.0215 0 0 -1.61149e-43 0 0 0.022 0 0 -1.61149e-43 0 0 0.017 0 0 0 0 -0.0068 0.0873 0.0207 -1.61149e-43 0 0 0 0.0267 0 -3.20897e-43 0 0 0 0.0213 0 -4.00771e-43 0 0 0 0.018 0 0 0 0 -0.0067 0.0922 0.0055 -1.61149e-43 0 0 0 0.0266 0 -3.20897e-43 0 0 0 0.0228 0 -4.00771e-43 0 0 0 0.015 0 0 0 0 -0.0067 0.0925 -0.0113 -1.61149e-43 0 0 0 0.0247 0 -3.20897e-43 0 0 0 0.0221 0 -4.00771e-43 0 0 0 0.018 0 0 0 0 -0.0066 0.0935 -0.0272 -1.61149e-43 0 0 0 0.0163 0 -3.20897e-43 0 0 0 0.0171 0 -4.00771e-43 0 0 0 0.018 0 0 0 0 0 47.0435 -2.38419e-05 50.7925 4.26887e-06 6.13012 -24.6466 1.19209e-05 2.38419e-05 21.4547 47.7752 -4.75482 -27.4296 2.38419e-05 3.72529e-07 8.44769e-06 6.83019e-06 28.1881 -25.4133 2.38419e-05 0 5.56816 5.46421e-05 -2.10319 -0.0062 0.0497 0.0339 1.61149e-43 0 0 0 0.0215 0 0 -1.61149e-43 0 0 0.022 0 0 -1.61149e-43 0 0 0.017 0 0 0 0 0.0068 0.0873 0.0207 1.61149e-43 0 0 0 0.0267 0 3.20897e-43 0 0 0 0.0213 0 4.00771e-43 0 0 0 0.018 0 0 0 0 0.0067 0.0922 0.0055 1.61149e-43 0 0 0 0.0266 0 3.20897e-43 0 0 0 0.0228 0 4.00771e-43 0 0 0 0.015 0 0 0 0 0.0067 0.0925 -0.0113 1.61149e-43 0 0 0 0.0247 0 3.20897e-43 0 0 0 0.0221 0 4.00771e-43 0 0 0 0.018 0 0 0 0 0.0066 0.0935 -0.0272 1.61149e-43 0 0 0 0.0163 0 3.20897e-43 0 0 0 0.0171 0 4.00771e-43 0 0 0 0.018 0 0 0 0 0 47.0435 -2.38419e-05 -19.1816 39.6796 12.523 0 14.5204 0 9.60495e-06 -1.25932e-05 1.70755e-06 
-104.114 15.7952 -268.845 -2.80293 -3.60895 74.3584 6.71225 -6.77752 1.78062 7.08092 10.4595 -8.55929 4.76837e-05 -48.9029 0 -16.6213 -10.6601 -3.47507e-06 -9.53674e-05 -38.2257 0 18.8637 -12.1683 15.1982 -6.69653 -6.32138 0.537837 -4.35308 4.43066 -5.0968 7.15256e-05 -47.8498 -2.38419e-05 3.28221 -2.06351 0.118318 -7.15256e-05 -37.6163 0 9.3391 -14.2738 7.59854 0 7.16532 -7.1653 1.3845 -1.87858 -5.44729 0 47.0435 0 -59.3957 1.02453e-05 -5.70887 26.3833 7.15256e-05 -4.76837e-05 155.203 -44.515 178.454 23.8535 3.42727e-05 -4.76837e-05 1.75889e-06 -5.12264e-06 -20.1394 23.1941 1.63913e-05 7.15256e-05 -16.3546 -4.55396 16.1982 0.0062 0.0497 0.0339 -1.61149e-43 0 0 0 0.0215 0 0 -1.61149e-43 0 0 0.022 0 0 -1.61149e-43 0 0 0.017 0 0 0 0 -0.0068 0.0873 0.0207 -1.61149e-43 0 0 0 0.0267 0 -3.20897e-43 0 0 0 0.0213 0 -4.00771e-43 0 0 0 0.018 0 0 0 0 -0.0067 0.0922 0.0055 -1.61149e-43 0 0 0 0.0266 0 -3.20897e-43 0 0 0 0.0228 0 -4.00771e-43 0 0 0 0.015 0 0 0 0 -0.0067 0.0925 -0.0113 -1.61149e-43 0 0 0 0.0247 0 -3.20897e-43 0 0 0 0.0221 0 -4.00771e-43 0 0 0 0.018 0 0 0 0 -0.0066 0.0935 -0.0272 -1.61149e-43 0 0 0 0.0163 0 -3.20897e-43 0 0 0 0.0171 0 -4.00771e-43 0 0 0 0.018 0 0 0 0 0 47.0435 0 50.7573 -7.68396e-06 6.12124 -24.612 -3.57628e-05 0 21.2105 47.8751 -4.59195 -27.3763 -2.38419e-05 -2.38419e-05 1.73113e-06 -6.83019e-06 28.2468 -25.496 2.38419e-05 5.96046e-06 5.67398 0.000179295 -2.08172 -0.0062 0.0497 0.0339 1.61149e-43 0 0 0 0.0215 0 0 -1.61149e-43 0 0 0.022 0 0 -1.61149e-43 0 0 0.017 0 0 0 0 0.0068 0.0873 0.0207 1.61149e-43 0 0 0 0.0267 0 3.20897e-43 0 0 0 0.0213 0 4.00771e-43 0 0 0 0.018 0 0 0 0 0.0067 0.0922 0.0055 1.61149e-43 0 0 0 0.0266 0 3.20897e-43 0 0 0 0.0228 0 4.00771e-43 0 0 0 0.015 0 0 0 0 0.0067 0.0925 -0.0113 1.61149e-43 0 0 0 0.0247 0 3.20897e-43 0 0 0 0.0221 0 4.00771e-43 0 0 0 0.018 0 0 0 0 0.0066 0.0935 -0.0272 1.61149e-43 0 0 0 0.0163 0 3.20897e-43 0 0 0 0.0171 0 4.00771e-43 0 0 0 0.018 0 0 0 0 0 47.0435 0 -19.6372 39.0371 12.6657 -2.38419e-05 14.5567 -2.38419e-05 1.04587e-05 -1.66486e-05 -1.70755e-06 
-104.143 15.7815 -268.907 -2.83619 -3.612 74.3621 6.69398 -6.76615 1.78444 7.053 10.3976 -8.60371 4.76837e-05 -48.9521 -2.38419e-05 -16.6031 -10.6971 1.21642e-05 -7.15256e-05 -38.1835 4.76837e-05 19.1307 -12.0594 15.3922 -6.65627 -6.33354 0.534821 -4.43454 4.37607 -5.13938 0 -47.8859 2.38419e-05 3.34774 -2.06402 0.120717 -2.38419e-05 -37.587 -2.38419e-05 9.36457 -14.2841 7.6208 0 7.1677 -7.1677 1.38123 -1.88876 -5.47481 0 47.0435 0 -59.3678 2.56132e-05 -5.69474 26.3847 0 -4.76837e-05 155.166 -44.7396 178.626 23.8584 1.19209e-05 -2.38419e-05 2.62625e-07 -1.70755e-06 -20.8726 23.1429 -3.72529e-05 0 -13.6516 -4.1787 27.1475 0.0062 0.0497 0.0339 -1.61149e-43 0 0 0 0.0215 0 0 -1.61149e-43 0 0 0.022 0 0 -1.61149e-43 0 0 0.017 0 0 0 0 -0.0068 0.0873 0.0207 -1.61149e-43 0 0 0 0.0267 0 -3.20897e-43 0 0 0 0.0213 0 -4.00771e-43 0 0 0 0.018 0 0 0 0 -0.0067 0.0922 0.0055 -1.61149e-43 0 0 0 0.0266 0 -3.20897e-43 0 0 0 0.0228 0 -4.00771e-43 0 0 0 0.015 0 0 0 0 -0.0067 0.0925 -0.0113 -1.61149e-43 0 0 0 0.0247 0 -3.20897e-43 0 0 0 0.0221 0 -4.00771e-43 0 0 0 0.018 0 0 0 0 -0.0066 0.0935 -0.0272 -1.61149e-43 0 0 0 0.0163 0 -3.20897e-43 0 0 0 0.0171 0 -4.00771e-43 0 0 0 0.018 0 0 0 0 0 47.0435 0 50.7307 -1.8783e-05 6.11073 -24.5946 0 -3.57628e-05 21.059 48.1065 -4.46908 -27.345 0 -1.19442e-05 8.92831e-06 6.83019e-06 28.2927 -25.5787 -2.38419e-05 4.17233e-05 5.73173 0.000198078 -2.07444 -0.0062 0.0497 0.0339 1.61149e-43 0 0 0 0.0215 0 0 -1.61149e-43 0 0 0.022 0 0 -1.61149e-43 0 0 0.017 0 0 0 0 0.0068 0.0873 0.0207 1.61149e-43 0 0 0 0.0267 0 3.20897e-43 0 0 0 0.0213 0 4.00771e-43 0 0 0 0.018 0 0 0 0 0.0067 0.0922 0.0055 1.61149e-43 0 0 0 0.0266 0 3.20897e-43 0 0 0 0.0228 0 4.00771e-43 0 0 0 0.015 0 0 0 0 0.0067 0.0925 -0.0113 1.61149e-43 0 0 0 0.0247 0 3.20897e-43 0 0 0 0.0221 0 4.00771e-43 0 0 0 0.018 0 0 0 0 0.0066 0.0935 -0.0272 1.61149e-43 0 0 0 0.0163 0 3.20897e-43 0 0 0 0.0171 0 4.00771e-43 0 0 0 0.018 0 0 0 0 0 47.0435 0 -20.0667 38.6094 12.8408 4.76837e-05 14.5957 -2.38419e-05 9.8184e-06 -8.96463e-06 -3.4151e-06 
-104.176 15.7661 -268.986 -2.87318 -3.63061 74.3256 6.67236 -6.75366 1.78617 7.02952 10.3358 -8.64349 2.38419e-05 -49.0055 0 -16.5764 -10.7476 1.04282e-05 2.38419e-05 -38.1365 0 19.4755 -11.9111 15.6416 -6.61514 -6.33565 0.53159 -4.49005 4.31515 -5.18112 -4.76837e-05 -47.9318 0 3.35814 -2.06517 0.121144 -2.38419e-05 -37.5396 1.19209e-05 9.42311 -14.2966 7.67055 4.76837e-05 7.16956 -7.16958 1.3791 -1.89025 -5.4984 -9.53674e-05 47.0435 2.38419e-05 -59.3273 1.19528e-05 -5.691 26.3768 2.38419e-05 2.38419e-05 155.051 -45.0003 178.776 23.8515 3.12924e-05 -7.15256e-05 7.17932e-07 -5.12264e-06 -21.7024 23.1266 -1.3411e-05 -2.38419e-05 -11.9613 -3.2262 31.8707 0.0062 0.0497 0.0339 -1.61149e-43 0 0 0 0.0215 0 0 -1.61149e-43 0 0 0.022 0 0 -1.61149e-43 0 0 0.017 0 0 0 0 -0.0068 0.0873 0.0207 -1.61149e-43 0 0 0 0.0267 0 -3.20897e-43 0 0 0 0.0213 0 -4.00771e-43 0 0 0 0.018 0 0 0 0 -0.0067 0.0922 0.0055 -1.61149e-43 0 0 0 0.0266 0 -3.20897e-43 0 0 0 0.0228 0 -4.00771e-43 0 0 0 0.015 0 0 0 0 -0.0067 0.0925 -0.0113 -1.61149e-43 0 0 0 0.0247 0 -3.20897e-43 0 0 0 0.0221 0 -4.00771e-43 0 0 0 0.018 0 0 0 0 -0.0066 0.0935 -0.0272 -1.61149e-43 0 0 0 0.0163 0 -3.20897e-43 0 0 0 0.0171 0 -4.00771e-43 0 0 0 0.018 0 0 0 0 -9.53674e-05 47.0435 2.38419e-05 50.7245 -1.96368e-05 6.11306 -24.5618 0 1.19209e-05 20.8686 48.4819 -4.35995 -27.3019 2.38419e-05 2.3935e-05 4.99696e-06 5.12264e-06 28.3507 -25.6669 4.76837e-05 0 5.76282 0.00025272 -2.05308 -0.0062 0.0497 0.0339 1.61149e-43 0 0 0 0.0215 0 0 -1.61149e-43 0 0 0.022 0 0 -1.61149e-43 0 0 0.017 0 0 0 0 0.0068 0.0873 0.0207 1.61149e-43 0 0 0 0.0267 0 3.20897e-43 0 0 0 0.0213 0 4.00771e-43 0 0 0 0.018 0 0 0 0 0.0067 0.0922 0.0055 1.61149e-43 0 0 0 0.0266 0 3.20897e-43 0 0 0 0.0228 0 4.00771e-43 0 0 0 0.015 0 0 0 0 0.0067 0.0925 -0.0113 1.61149e-43 0 0 0 0.0247 0 3.20897e-43 0 0 0 0.0221 0 4.00771e-43 0 0 0 0.018 0 0 0 0 0.0066 0.0935 -0.0272 1.61149e-43 0 0 0 0.0163 0 3.20897e-43 0 0 0 0.0171 0 4.00771e-43 0 0 0 0.018 0 0 0 0 -9.53674e-05 47.0435 2.38419e-05 -20.8065 37.6653 13.0721 2.38419e-05 14.6395 0 6.4033e-06 -2.00637e-05 0 
